<?xml version="1.0" encoding="UTF-8"?>
<svg width="20px" height="20px" viewBox="0 0 20 20" version="1.1" xmlns="http://www.w3.org/2000/svg" xmlns:xlink="http://www.w3.org/1999/xlink">
    <!-- Generator: Sketch 53.2 (72643) - https://sketchapp.com -->
    <title>clip icon</title>
    <desc>Created with Sketch.</desc>
    <g id="1.-Desktop" stroke="none" stroke-width="1" fill="none" fill-rule="evenodd">
        <g id="1-—-PageTitle" transform="translate(-764.000000, -1025.000000)" fill="#000000">
            <path d="M767.378906,1044.9375 C766.949217,1044.9375 766.535809,1044.84961 766.138672,1044.67383 C765.741534,1044.49805 765.38021,1044.2474 765.054688,1043.92188 C764.338538,1043.20573 763.980469,1042.33659 763.980469,1041.31445 C763.980469,1040.29231 764.338538,1039.42318 765.054688,1038.70703 L776.285156,1026.79297 C776.714846,1026.35026 777.199867,1026.028 777.740234,1025.82617 C778.280602,1025.62435 778.833982,1025.53971 779.400391,1025.57227 C779.9668,1025.60482 780.529945,1025.75456 781.089844,1026.02148 C781.649742,1026.28841 782.177081,1026.66276 782.671875,1027.14453 C783.101565,1027.58724 783.436848,1028.11133 783.677734,1028.7168 C783.918621,1029.32227 784.032552,1029.95703 784.019531,1030.62109 C784.00651,1031.28516 783.876303,1031.91666 783.628906,1032.51563 C783.381509,1033.11459 783.042971,1033.63541 782.613281,1034.07813 L774.117188,1043.10156 C773.999999,1043.23177 773.856772,1043.30013 773.6875,1043.30664 C773.518228,1043.31315 773.36849,1043.25781 773.238281,1043.14063 C773.121093,1043.02344 773.059245,1042.87695 773.052734,1042.70117 C773.046224,1042.52539 773.101562,1042.3724 773.21875,1042.24219 L781.714844,1033.21875 C782.040366,1032.88021 782.29427,1032.48308 782.476562,1032.02734 C782.658855,1031.57161 782.75651,1031.09636 782.769531,1030.60156 C782.769531,1030.10677 782.684897,1029.63477 782.515625,1029.18555 C782.346353,1028.73633 782.09896,1028.35547 781.773438,1028.04297 C781.174476,1027.43099 780.438806,1027.0306 779.566406,1026.8418 C778.694006,1026.65299 777.899743,1026.92317 777.183594,1027.65234 L765.953125,1039.56641 C765.471352,1040.04818 765.230469,1040.6276 765.230469,1041.30469 C765.230469,1041.98177 765.471352,1042.5612 765.953125,1043.04297 C766.17448,1043.26432 766.415363,1043.43034 766.675781,1043.54102 C766.936199,1043.65169 767.209634,1043.69401 767.496094,1043.66797 C767.769533,1043.65495 768.046223,1043.58008 768.326172,1043.44336 C768.606121,1043.30664 768.86328,1043.11458 769.097656,1042.86719 L778.023438,1033.375 C778.192709,1033.20573 778.371744,1032.94857 778.560547,1032.60352 C778.74935,1032.25846 778.674481,1031.92318 778.335938,1031.59766 C778.153645,1031.40234 777.997396,1031.29492 777.867188,1031.27539 C777.736979,1031.25586 777.652344,1031.24609 777.613281,1031.24609 C777.496093,1031.25911 777.365886,1031.30794 777.222656,1031.39258 C777.079426,1031.47721 776.929688,1031.59115 776.773438,1031.73438 L770.054688,1038.88281 C769.937499,1039.01302 769.794272,1039.07813 769.625,1039.07813 C769.455728,1039.07813 769.30599,1039.01953 769.175781,1038.90234 C769.045572,1038.78516 768.980469,1038.64193 768.980469,1038.47266 C768.980469,1038.30338 769.039062,1038.15365 769.15625,1038.02344 L775.875,1030.85547 C776.148439,1030.59505 776.418618,1030.39323 776.685547,1030.25 C776.952475,1030.10677 777.222655,1030.02214 777.496094,1029.99609 C777.717449,1029.98307 777.977863,1030.01562 778.277344,1030.09375 C778.576824,1030.17188 778.889321,1030.3737 779.214844,1030.69922 C779.709638,1031.18099 779.927735,1031.74739 779.869141,1032.39844 C779.810547,1033.04948 779.494795,1033.66146 778.921875,1034.23438 L769.996094,1043.74609 C769.644529,1044.09766 769.260419,1044.37435 768.84375,1044.57617 C768.427081,1044.778 767.997398,1044.89193 767.554688,1044.91797 C767.528646,1044.91797 767.499349,1044.92122 767.466797,1044.92773 C767.434245,1044.93424 767.404948,1044.9375 767.378906,1044.9375 Z" id="clip-icon"></path>
        </g>
    </g>
</svg>