<?xml version="1.0" encoding="UTF-8"?>
<svg width="21px" height="15px" viewBox="0 0 21 15" version="1.1" xmlns="http://www.w3.org/2000/svg" xmlns:xlink="http://www.w3.org/1999/xlink">
    <!-- Generator: Sketch 53.2 (72643) - https://sketchapp.com -->
    <title>eye icon</title>
    <desc>Created with Sketch.</desc>
    <g id="1.-Desktop" stroke="none" stroke-width="1" fill="none" fill-rule="evenodd">
        <g id="1-—-PageTitle" transform="translate(-812.000000, -1028.000000)" fill="#000000">
            <path d="M823.058594,1031.51953 C824.100266,1031.51953 824.985673,1031.88737 825.714844,1032.62305 C826.444014,1033.35873 826.808594,1034.24088 826.808594,1035.26953 C826.808594,1036.3112 826.444014,1037.19661 825.714844,1037.92578 C824.985673,1038.65495 824.100266,1039.01953 823.058594,1039.01953 C822.029943,1039.01953 821.14779,1038.65495 820.412109,1037.92578 C819.676429,1037.19661 819.308594,1036.3112 819.308594,1035.26953 C819.308594,1034.24088 819.676429,1033.35873 820.412109,1032.62305 C821.14779,1031.88737 822.029943,1031.51953 823.058594,1031.51953 Z M823.058594,1037.76953 C823.748701,1037.76953 824.334633,1037.52214 824.816406,1037.02734 C825.298179,1036.53255 825.539062,1035.94011 825.539062,1035.25 C825.539062,1034.55989 825.294924,1033.97071 824.806641,1033.48242 C824.318357,1032.99414 823.72917,1032.75 823.039062,1032.75 C822.348955,1032.75 821.759768,1032.99414 821.271484,1033.48242 C820.783201,1033.97071 820.539062,1034.55989 820.539062,1035.25 C820.539062,1035.94011 820.789711,1036.53255 821.291016,1037.02734 C821.79232,1037.52214 822.381507,1037.76953 823.058594,1037.76953 Z M833,1035.11328 C833,1035.13932 833.003255,1035.16536 833.009766,1035.19141 C833.016276,1035.21745 833.019531,1035.24349 833.019531,1035.26953 C833.019531,1035.29557 833.016276,1035.32487 833.009766,1035.35742 C833.003255,1035.38997 833,1035.41927 833,1035.44531 C832.986979,1035.45833 832.980469,1035.47135 832.980469,1035.48438 L832.980469,1035.54297 L832.960938,1035.5625 L832.960938,1035.5918 C832.960938,1035.59831 832.954427,1035.60807 832.941406,1035.62109 C832.498696,1036.66277 831.925785,1037.58724 831.222656,1038.39453 C830.519528,1039.20183 829.731775,1039.88216 828.859375,1040.43555 C827.986975,1040.98894 827.052739,1041.41211 826.056641,1041.70508 C825.060542,1041.99805 824.041672,1042.14453 823,1042.14453 C821.958328,1042.14453 820.939458,1041.99805 819.943359,1041.70508 C818.947261,1041.41211 818.013025,1040.98894 817.140625,1040.43555 C816.268225,1039.88216 815.480472,1039.20183 814.777344,1038.39453 C814.074215,1037.58724 813.494794,1036.66277 813.039062,1035.62109 L813.039062,1035.5625 L813.029297,1035.55273 C813.022786,1035.54622 813.019531,1035.53646 813.019531,1035.52344 L813.019531,1035.48438 C813.019531,1035.47135 813.013021,1035.45182 813,1035.42578 C813,1035.39974 812.996745,1035.3737 812.990234,1035.34766 C812.983724,1035.32161 812.980469,1035.29557 812.980469,1035.26953 C812.980469,1035.24349 812.983724,1035.21419 812.990234,1035.18164 C812.996745,1035.14909 813,1035.11979 813,1035.09375 C813.013021,1035.08073 813.019531,1035.06771 813.019531,1035.05469 L813.019531,1034.99609 L813.039062,1034.97656 L813.039062,1034.91797 C813.494794,1033.8763 814.07747,1032.94857 814.787109,1032.13477 C815.496748,1031.32096 816.287756,1030.63412 817.160156,1030.07422 C818.032556,1029.51432 818.970047,1029.08789 819.972656,1028.79492 C820.975265,1028.50195 821.997391,1028.35547 823.039062,1028.35547 C824.080734,1028.35547 825.099604,1028.50195 826.095703,1028.79492 C827.091802,1029.08789 828.019527,1029.51432 828.878906,1030.07422 C829.738286,1030.63412 830.519528,1031.32096 831.222656,1032.13477 C831.925785,1032.94857 832.498696,1033.8763 832.941406,1034.91797 C832.954427,1034.93099 832.960938,1034.94076 832.960938,1034.94727 L832.960938,1034.97656 L832.970703,1034.98633 C832.977214,1034.99284 832.980469,1035.0026 832.980469,1035.01562 L832.980469,1035.05469 C832.980469,1035.06771 832.986979,1035.08724 833,1035.11328 Z M823,1040.89453 C823.885421,1040.89453 824.761063,1040.77734 825.626953,1040.54297 C826.492843,1040.30859 827.306637,1039.95703 828.068359,1039.48828 C828.830082,1039.01953 829.52669,1038.4336 830.158203,1037.73047 C830.789717,1037.02734 831.3138,1036.20704 831.730469,1035.26953 C831.3138,1034.33203 830.792972,1033.51172 830.167969,1032.80859 C829.542966,1032.10547 828.849613,1031.51628 828.087891,1031.04102 C827.326168,1030.56575 826.515629,1030.20768 825.65625,1029.9668 C824.796871,1029.72591 823.924484,1029.60547 823.039062,1029.60547 C822.153641,1029.60547 821.277999,1029.72591 820.412109,1029.9668 C819.54622,1030.20768 818.729171,1030.56575 817.960938,1031.04102 C817.192704,1031.51628 816.489587,1032.10547 815.851562,1032.80859 C815.213538,1033.51172 814.6862,1034.33203 814.269531,1035.26953 C814.6862,1036.20704 815.213538,1037.02734 815.851562,1037.73047 C816.489587,1038.4336 817.189449,1039.01953 817.951172,1039.48828 C818.712894,1039.95703 819.523433,1040.30859 820.382812,1040.54297 C821.242192,1040.77734 822.114579,1040.89453 823,1040.89453 Z" id="eye-icon"></path>
        </g>
    </g>
</svg>