<?xml version="1.0" encoding="UTF-8"?>
<svg width="21px" height="19px" viewBox="0 0 21 19" version="1.1" xmlns="http://www.w3.org/2000/svg" xmlns:xlink="http://www.w3.org/1999/xlink">
    <!-- Generator: Sketch 53.2 (72643) - https://sketchapp.com -->
    <title>heart icon</title>
    <desc>Created with Sketch.</desc>
    <g id="1.-Desktop" stroke="none" stroke-width="1" fill="none" fill-rule="evenodd">
        <g id="1-—-PageTitle" transform="translate(-862.000000, -1026.000000)" fill="#000000">
            <path d="M867.625,1027.47656 C867.026039,1027.47656 866.479169,1027.56771 865.984375,1027.75 C865.489581,1027.93229 865.027346,1028.23177 864.597656,1028.64844 C864.167967,1029.09115 863.835939,1029.59245 863.601562,1030.15234 C863.367186,1030.71224 863.25,1031.29817 863.25,1031.91016 C863.25,1032.52214 863.367186,1033.10807 863.601562,1033.66797 C863.835939,1034.22787 864.167967,1034.72265 864.597656,1035.15234 C864.753907,1035.30859 865.173825,1035.76106 865.857422,1036.50977 C866.541019,1037.25847 867.276689,1038.06575 868.064453,1038.93164 C868.852217,1039.79753 869.591142,1040.61783 870.28125,1041.39258 C870.971358,1042.16732 871.414062,1042.65885 871.609375,1042.86719 C871.6875,1042.93229 871.762369,1042.97461 871.833984,1042.99414 C871.905599,1043.01367 871.967448,1043.02344 872.019531,1043.02344 C872.058594,1043.02344 872.117187,1043.01367 872.195312,1042.99414 C872.273438,1042.97461 872.351562,1042.93229 872.429688,1042.86719 C873.210941,1042.00781 874.01497,1041.13542 874.841797,1040.25 C875.668624,1039.36458 876.417314,1038.5573 877.087891,1037.82812 C877.758467,1037.09895 878.311847,1036.5 878.748047,1036.03125 C879.184247,1035.5625 879.415364,1035.32161 879.441406,1035.30859 C879.871096,1034.86588 880.203124,1034.36459 880.4375,1033.80469 C880.671876,1033.24479 880.789062,1032.65886 880.789062,1032.04688 C880.789062,1031.43489 880.671876,1030.84896 880.4375,1030.28906 C880.203124,1029.72916 879.871096,1029.23438 879.441406,1028.80469 C878.985675,1028.34896 878.510419,1028.01367 878.015625,1027.79883 C877.520831,1027.58398 876.973961,1027.47656 876.375,1027.47656 C875.932289,1027.47656 875.401696,1027.65885 874.783203,1028.02344 C874.16471,1028.38802 873.542972,1028.88932 872.917969,1029.52734 L872.039062,1030.42578 L871.140625,1029.54688 C870.242183,1028.66145 869.509768,1028.09505 868.943359,1027.84766 C868.37695,1027.60026 867.937502,1027.47656 867.625,1027.47656 Z M867.625,1026.22656 C868.393233,1026.22656 869.158199,1026.47396 869.919922,1026.96875 C870.681644,1027.46354 871.381507,1028.02343 872.019531,1028.64844 C872.631513,1028.02343 873.324866,1027.46354 874.099609,1026.96875 C874.874353,1026.47396 875.632809,1026.22656 876.375,1026.22656 C877.143233,1026.22656 877.852861,1026.36654 878.503906,1026.64648 C879.154951,1026.92643 879.760414,1027.35286 880.320312,1027.92578 C880.893232,1028.48568 881.322915,1029.12695 881.609375,1029.84961 C881.895835,1030.57227 882.039062,1031.30468 882.039062,1032.04688 C882.039062,1032.78907 881.895835,1033.52148 881.609375,1034.24414 C881.322915,1034.9668 880.893232,1035.61458 880.320312,1036.1875 C880.307292,1036.20052 879.932946,1036.60091 879.197266,1037.38867 C878.461585,1038.17644 877.660812,1039.04231 876.794922,1039.98633 C875.929032,1040.93034 875.134769,1041.78971 874.412109,1042.56445 C873.68945,1043.3392 873.328125,1043.72656 873.328125,1043.72656 C873.145832,1043.90886 872.940756,1044.04557 872.712891,1044.13672 C872.485025,1044.22787 872.253907,1044.27344 872.019531,1044.27344 C871.772134,1044.27344 871.537762,1044.22787 871.316406,1044.13672 C871.095051,1044.04557 870.89323,1043.90886 870.710938,1043.72656 C870.710938,1043.72656 870.375654,1043.35873 869.705078,1042.62305 C869.034502,1041.88737 868.282556,1041.0573 867.449219,1040.13281 C866.615881,1039.20833 865.824874,1038.33594 865.076172,1037.51562 C864.32747,1036.69531 863.875001,1036.20052 863.71875,1036.03125 C863.14583,1035.45833 862.716147,1034.81381 862.429688,1034.09766 C862.143228,1033.38151 862,1032.64909 862,1031.90039 C862,1031.15169 862.143228,1030.41927 862.429688,1029.70312 C862.716147,1028.98698 863.14583,1028.34245 863.71875,1027.76953 C864.265628,1027.22265 864.867835,1026.82878 865.525391,1026.58789 C866.182946,1026.347 866.882809,1026.22656 867.625,1026.22656 Z" id="heart-icon"></path>
        </g>
    </g>
</svg>