<?xml version="1.0" encoding="UTF-8"?>
<svg width="151px" height="30px" viewBox="0 0 151 30" version="1.1" xmlns="http://www.w3.org/2000/svg" xmlns:xlink="http://www.w3.org/1999/xlink">
    <!-- Generator: Sketch 53.2 (72643) - https://sketchapp.com -->
    <title>ROBOTO logo</title>
    <desc>Created with Sketch.</desc>
    <g id="1.-Desktop" stroke="none" stroke-width="1" fill="none" fill-rule="evenodd">
        <g id="1-—-PageTitle" transform="translate(-135.000000, -60.000000)" fill="#FFFFFF">
            <g id="nav" transform="translate(135.000000, 60.000000)">
                <path d="M6.78905207,18.4045394 L6.78905207,29.5794393 L0,29.5794393 L0,0.420560748 L11.2149533,0.420560748 C14.5928073,0.420560748 17.269683,1.20159433 19.2456609,2.76368491 C21.2216387,4.3257755 22.2096128,6.46193571 22.2096128,9.17222964 C22.2096128,10.6809154 21.8124205,11.9759626 21.018024,13.0574099 C20.2236275,14.1388572 19.0520772,15.0200233 17.5033378,15.7009346 C19.2923988,16.2082802 20.5774327,17.0527311 21.358478,18.2343124 C22.1395233,19.4158938 22.5300401,20.8878417 22.5300401,22.6502003 L22.5300401,24.4926569 C22.5300401,25.2536754 22.6435236,26.1214905 22.870494,27.0961282 C23.0974644,28.0707659 23.491319,28.765018 24.0520694,29.1789052 L24.0520694,29.5794393 L17.082777,29.5794393 C16.548729,29.165552 16.1982652,28.4312469 16.0313752,27.376502 C15.8644851,26.3217571 15.7810414,25.347134 15.7810414,24.4526035 L15.7810414,22.6902537 C15.7810414,21.3017287 15.4138889,20.2403241 14.6795728,19.506008 C13.9452567,18.7716919 12.8705011,18.4045394 11.4552737,18.4045394 L6.78905207,18.4045394 Z M6.78905207,13.1975968 L11.2550067,13.1975968 C12.6168292,13.1975968 13.6582073,12.887186 14.3791722,12.2663551 C15.1001371,11.6455243 15.4606142,10.7543449 15.4606142,9.59279039 C15.4606142,8.40453344 15.0901239,7.4465991 14.3491322,6.71895861 C13.6081405,5.99131812 12.5634246,5.62750334 11.2149533,5.62750334 L6.78905207,5.62750334 L6.78905207,13.1975968 Z M50.1628839,17.623498 C50.1628839,21.2149712 49.024711,24.1755558 46.7483311,26.5053405 C44.4719513,28.8351251 41.4980157,30 37.8264353,30 C34.1281524,30 31.1308526,28.8351251 28.834446,26.5053405 C26.5380393,24.1755558 25.3898532,21.2149712 25.3898532,17.623498 L25.3898532,12.376502 C25.3898532,8.79837997 26.5347015,5.84113318 28.8244326,3.5046729 C31.1141637,1.16821262 34.1014502,0 37.7863819,0 C41.4446111,0 44.4218844,1.16821262 46.7182911,3.5046729 C49.0146978,5.84113318 50.1628839,8.79837997 50.1628839,12.376502 L50.1628839,17.623498 Z M43.4138852,12.3364486 C43.4138852,10.2536611 42.9232359,8.54473298 41.9419226,7.20961282 C40.9606093,5.87449266 39.5754429,5.20694259 37.7863819,5.20694259 C35.9572673,5.20694259 34.5587499,5.87115491 33.5907877,7.19959947 C32.6228256,8.52804403 32.1388518,10.2403099 32.1388518,12.3364486 L32.1388518,17.623498 C32.1388518,19.7329879 32.6295011,21.455267 33.6108144,22.7903872 C34.5921278,24.1255073 35.9973207,24.7930574 37.8264353,24.7930574 C39.6021451,24.7930574 40.9772982,24.1255073 41.9519359,22.7903872 C42.9265737,21.455267 43.4138852,19.7329879 43.4138852,17.623498 L43.4138852,12.3364486 Z M53.0627504,29.5794393 L53.0627504,0.420560748 L63.0761015,0.420560748 C66.6942772,0.420560748 69.5180139,1.09144856 71.5473966,2.43324433 C73.5767792,3.77504009 74.5914553,5.77435254 74.5914553,8.43124166 C74.5914553,9.81976662 74.2643558,11.0547342 73.6101469,12.1361816 C72.955938,13.2176289 71.9479374,14.03204 70.5861149,14.5794393 C72.2950687,14.9666241 73.5567383,15.7443199 74.3711616,16.9125501 C75.1855849,18.0807802 75.5927904,19.4258936 75.5927904,20.9479306 C75.5927904,23.7917365 74.6381938,25.9412477 72.728972,27.3965287 C70.8197502,28.8518097 68.0827949,29.5794393 64.5180241,29.5794393 L53.0627504,29.5794393 Z M59.8518025,17.0627503 L59.8518025,24.3724967 L64.5180241,24.3724967 C65.9599539,24.3724967 67.041385,24.0887879 67.7623499,23.5213618 C68.4833147,22.9539357 68.8437918,22.0827829 68.8437918,20.9078772 C68.8437918,19.639513 68.533381,18.6815787 67.9125501,18.0340454 C67.2917192,17.3865121 66.2870564,17.0627503 64.8985314,17.0627503 L59.8518025,17.0627503 Z M59.8518025,12.576769 L63.2162884,12.576769 C64.7516766,12.5500666 65.8998627,12.2530068 66.6608812,11.6855808 C67.4218997,11.1181547 67.8024033,10.2870549 67.8024033,9.19225634 C67.8024033,7.95059459 67.4152242,7.04606425 66.6408545,6.47863818 C65.8664848,5.91121212 64.6782457,5.62750334 63.0761015,5.62750334 L59.8518025,5.62750334 L59.8518025,12.576769 Z M102.484646,17.623498 C102.484646,21.2149712 101.346473,24.1755558 99.0700935,26.5053405 C96.7937137,28.8351251 93.8197781,30 90.1481977,30 C86.4499148,30 83.452615,28.8351251 81.1562084,26.5053405 C78.8598017,24.1755558 77.7116156,21.2149712 77.7116156,17.623498 L77.7116156,12.376502 C77.7116156,8.79837997 78.8564639,5.84113318 81.146195,3.5046729 C83.4359261,1.16821262 86.4232126,0 90.1081443,0 C93.7663735,0 96.7436468,1.16821262 99.0400535,3.5046729 C101.33646,5.84113318 102.484646,8.79837997 102.484646,12.376502 L102.484646,17.623498 Z M95.7356476,12.3364486 C95.7356476,10.2536611 95.2449983,8.54473298 94.263685,7.20961282 C93.2823717,5.87449266 91.8972053,5.20694259 90.1081443,5.20694259 C88.2790297,5.20694259 86.8805123,5.87115491 85.9125501,7.19959947 C84.944588,8.52804403 84.4606142,10.2403099 84.4606142,12.3364486 L84.4606142,17.623498 C84.4606142,19.7329879 84.9512635,21.455267 85.9325769,22.7903872 C86.9138902,24.1255073 88.3190831,24.7930574 90.1481977,24.7930574 C91.9239075,24.7930574 93.2990606,24.1255073 94.2736983,22.7903872 C95.2483361,21.455267 95.7356476,19.7329879 95.7356476,17.623498 L95.7356476,12.3364486 Z M125.190921,5.62750334 L117.500668,5.62750334 L117.500668,29.5794393 L110.711616,29.5794393 L110.711616,5.62750334 L103.081442,5.62750334 L103.081442,0.420560748 L125.190921,0.420560748 L125.190921,5.62750334 Z M150.460614,17.623498 C150.460614,21.2149712 149.322441,24.1755558 147.046062,26.5053405 C144.769682,28.8351251 141.795746,30 138.124166,30 C134.425883,30 131.428583,28.8351251 129.132176,26.5053405 C126.83577,24.1755558 125.687584,21.2149712 125.687584,17.623498 L125.687584,12.376502 C125.687584,8.79837997 126.832432,5.84113318 129.122163,3.5046729 C131.411894,1.16821262 134.399181,0 138.084112,0 C141.742342,0 144.719615,1.16821262 147.016021,3.5046729 C149.312428,5.84113318 150.460614,8.79837997 150.460614,12.376502 L150.460614,17.623498 Z M143.711616,12.3364486 C143.711616,10.2536611 143.220966,8.54473298 142.239653,7.20961282 C141.25834,5.87449266 139.873173,5.20694259 138.084112,5.20694259 C136.254998,5.20694259 134.85648,5.87115491 133.888518,7.19959947 C132.920556,8.52804403 132.436582,10.2403099 132.436582,12.3364486 L132.436582,17.623498 C132.436582,19.7329879 132.927232,21.455267 133.908545,22.7903872 C134.889858,24.1255073 136.295051,24.7930574 138.124166,24.7930574 C139.899876,24.7930574 141.275029,24.1255073 142.249666,22.7903872 C143.224304,21.455267 143.711616,19.7329879 143.711616,17.623498 L143.711616,12.3364486 Z" id="ROBOTO-logo"></path>
            </g>
        </g>
    </g>
</svg>